<?xml version="1.0" encoding="UTF-8"?><svg id="a" xmlns="http://www.w3.org/2000/svg" width="44j" height="44" viewBox="0 0 121.16 82.09"><path d="M3.04,6.35C1.44,4.62,2.53.16,6.66.34c21.42.92,11.23,45.52,6.16,54.03,2.06.36,6.97-9.03,21.87-34.57,2.38-3.29,3.34-2.95,5.48-2.94,2.97.12,3.19,3.14,3.25,5.16,0,0-1.33,15.96-.99,32.15-.64,11.41,19.26-48.97,19.26-48.97,1.58-4.37,7.58-6.91,8.54-2.77,1.34,12.42-14.19,47.02-14.19,47.02,0,0-18.17,42.9-24.39,29.82-.72-2.33-.66-7.84-.79-12.23-.2-6.54,1.25-14.63.91-23.01-7.08,6.58-19.13,44.22-28.15,36.23-13.99-15.81,21.55-55.16-.58-73.92Z" stroke-width=".5"/><path d="M103.99,1.06c31.97,5.66,11.94,35.54-5.51,40.21,7.89,7.89,7.74,14.63,7.82,15.86.14,4.68-1.21,9.69-4.23,12.97-4.24,5.79-19.99,12.5-32.89,11.67,0,0-25.67.64-16.16-6.49,3.16-2.1,19.1-1.76,24.45-3.01,5.91-1.38,6.83-1.94,9.88-3.93,9.69-7.98,7.31-21.74-5.44-25.34-.44.99-6.95,17.27-12.57,24.18-2.47,3.05-14.11,4.34-11.42-.23,5.73-9.72,12.07-26.55,16.08-35.66,2.99-6.79,4.3-12.39,7.11-18.27.59-1.25,6.29-4.72,8.32-3.19,2.82,2.12-5.72,27.64-5.72,27.64,21.95-1.5,38.32-24.41,16.48-30.22-5.27-1.4-18.28.22-19.57.56-2.14.56-8.17,1.09-5.51-3.19,2.64-3.51,17.51-5.61,28.87-3.56Z" stroke-width=".5"/></svg>
